<svg id="LOGO" xmlns="http://www.w3.org/2000/svg" viewBox="0 0 845.79 84.43"><defs><style>.cls-1{fill:#adbc30;}</style></defs><title>vortex-logo</title><path class="cls-1" d="M157.25,41c-0.66-27.2-12.78-41-38.66-41C94.18,0,80.85,13.09,80,41h9.24v0H88.08v0c0,28.78,12.08,43.39,38.65,43.39,25.1,0,38.56-13.83,38.7-43.41h-8.18ZM127,64c-9,0-13.44-6.71-13.53-23h-8.1c0.36-14.29,4.11-20.59,13-20.59,8.56,0,13,6.06,13.47,20.58h8.2v0C140.07,57,136.4,64,127,64Z"/><path class="cls-1" d="M234.81,61.28A57.51,57.51,0,0,0,228,50.66,26.91,26.91,0,0,0,238.87,41h-6.64a28.8,28.8,0,0,0,2.53-12.17c0-18-12-26.95-29-26.95H166.08V41h8.14V82.53H198V55l8-.13,14,27.7h26Zm-45-39.4h11.45c5.69,0,9.17,2.4,9.17,8.1s-3.92,8.29-9.74,8.29H189.86V21.89Z"/><polygon class="cls-1" points="305.41 22.71 305.41 1.9 240.57 1.9 240.57 22.71 261.07 22.71 261.07 41.02 269.21 41.02 269.21 82.53 292.99 82.53 292.99 41.02 284.85 41.02 284.85 22.71 305.41 22.71"/><polygon class="cls-1" points="345.23 61.73 345.23 50.09 375.97 50.09 375.97 41.02 367.83 41.02 367.83 34.03 337.09 34.03 337.09 22.71 371.62 22.71 371.62 1.9 313.31 1.9 313.31 41.02 321.44 41.02 321.44 82.53 379.76 82.53 379.76 61.73 345.23 61.73"/><polygon class="cls-1" points="442.78 41.02 435.64 41.02 455.29 1.9 428.6 1.9 416.5 31.85 404.25 1.9 377.05 1.9 396.69 41 405.85 41 405.85 41.02 384.37 82.53 411 82.53 424.1 54.85 437.06 82.53 464.26 82.53 442.78 41.02"/><polygon class="cls-1" points="79.06 1.9 53.64 1.9 44.52 41.02 52.01 41.02 47.68 63.69 47.67 63.69 43.72 41.02 34.94 41.02 26.06 1.9 0 1.9 11.07 41.02 20.02 41.02 31.8 82.53 63.55 82.53 75.31 41.02 67.98 41.02 79.06 1.9"/><polygon class="cls-1" points="610.84 61.73 610.84 50.09 641.58 50.09 641.58 41.02 633.44 41.02 633.44 34.03 602.7 34.03 602.7 22.71 637.24 22.71 637.24 1.9 578.92 1.9 578.92 41.02 587.06 41.02 587.06 82.53 645.38 82.53 645.38 61.73 610.84 61.73"/><path class="cls-1" d="M717.49,41C717,26.17,712.47,16,705,9.93s-17.77-8-29.73-8h-28V41h8.14V82.53h27.58c13,0,23.09-2.66,30-8.48,7.77-6.52,12.5-17.27,12.58-33h-8.2ZM683.57,62.55h-4.3V41h-8.14V21.89h4.68c5.38,0,9,1.2,11.58,3.67,3.22,3.11,4.55,8.32,4.81,15.48h8.2c0,8.78-1.49,14.84-5.43,18.23C692.24,61.6,688.51,62.55,683.57,62.55Z"/><polygon class="cls-1" points="749.42 41.02 749.42 1.9 725.64 1.9 725.64 41.02 733.78 41.02 733.78 82.53 757.57 82.53 757.57 41.02 749.42 41.02"/><path class="cls-1" d="M833.47,41h-9L812.86,1.9H780.66L769,41h7.29L764,82.53H789.5l2.78-10.81H817l2.66,10.81h26.19Zm-36,10.27L800,41h-7.67s1.89-8.8,4.05-20.89h0.51c1.26,7.31,4,20.89,4,20.89h8.46l2.51,10.27H797.47Z"/><path class="cls-1" d="M567.17,41V1.9H537.69L524,41h-2.09L508.22,1.9H478.3V41h8.14V82.54H510s0-1.16-.05-3.1v-38h0.74C511.85,45.35,522.43,73,522.43,73h16.7s10.23-27.36,11.69-31.62h0.71V82.54h23.78V41h-8.14Z"/></svg>